<svg width="1991" height="1220" viewBox="0 0 1991 1220" fill="none" xmlns="http://www.w3.org/2000/svg">
<path d="M302.816 190.109C306.39 190.109 310.757 192.658 312.511 195.765L355.49 271.702C357.244 274.809 357.244 279.905 355.49 283.012L312.511 358.95C310.757 362.057 306.39 364.605 302.816 364.605H217.041C213.467 364.605 209.1 362.057 207.346 358.95L164.367 283.012C162.613 279.905 162.613 274.809 164.367 271.702L207.346 195.765C209.1 192.658 213.467 190.109 217.041 190.109H302.816Z" fill="white"/>
<path d="M140.363 94.3982C143.937 94.3982 148.304 96.9463 150.058 100.054L193.037 175.991C194.791 179.098 194.791 184.194 193.037 187.301L150.058 263.238C148.304 266.346 143.937 268.894 140.363 268.894H54.5876C51.0137 268.894 46.6469 266.346 44.8924 263.238L1.90083 187.301C0.146337 184.194 0.146337 179.098 1.90083 175.991L44.8794 100.054C46.6339 96.9463 51.0007 94.3982 54.5746 94.3982H140.35H140.363Z" fill="white"/>
<path d="M140.363 285.509C143.937 285.509 148.304 288.057 150.058 291.164L193.037 367.101C194.791 370.208 194.791 375.305 193.037 378.412L150.058 454.349C148.304 457.456 143.937 460.004 140.363 460.004H54.5876C51.0137 460.004 46.6469 457.456 44.8924 454.349L1.90083 378.412C0.146337 375.305 0.146337 370.208 1.90083 367.101L44.8794 291.164C46.6339 288.057 51.0007 285.509 54.5746 285.509H140.35H140.363Z" fill="white"/>
<path d="M302.218 380.245C305.792 380.245 310.159 382.793 311.913 385.9L354.892 461.837C356.646 464.945 356.646 470.041 354.892 473.148L311.913 549.085C310.159 552.192 305.792 554.74 302.218 554.74H216.443C212.869 554.74 208.502 552.192 206.748 549.085L163.769 473.148C162.015 470.041 162.015 464.945 163.769 461.837L206.748 385.9C208.502 382.793 212.869 380.245 216.443 380.245H302.218Z" fill="white"/>
<path d="M139.765 476.645C143.339 476.645 147.706 479.193 149.46 482.3L192.439 558.238C194.193 561.345 194.193 566.441 192.439 569.548L149.46 645.485C147.706 648.592 143.339 651.141 139.765 651.141H53.9898C50.4158 651.141 46.0491 648.592 44.2946 645.485L1.31599 569.548C-0.438501 566.441 -0.438501 561.345 1.31599 558.238L44.2946 482.3C46.0491 479.193 50.4158 476.645 53.9898 476.645H139.765Z" fill="white"/>
<path d="M306.117 0C309.691 0 314.058 2.54814 315.812 5.65531L358.791 81.5925C360.545 84.6997 360.545 89.7959 358.791 92.9031L315.812 168.84C314.058 171.947 309.691 174.496 306.117 174.496H220.342C216.768 174.496 212.401 171.947 210.647 168.84L167.668 92.9031C165.914 89.7959 165.914 84.6997 167.668 81.5925L210.647 5.65531C212.401 2.54814 216.768 0 220.342 0H306.117Z" fill="white"/>
<path d="M305.116 569.821C308.69 569.821 313.057 572.369 314.812 575.477L357.79 651.414C359.545 654.521 359.545 659.617 357.79 662.724L314.812 738.662C313.057 741.769 308.69 744.317 305.116 744.317H219.341C215.767 744.317 211.4 741.769 209.646 738.662L166.667 662.724C164.913 659.617 164.913 654.521 166.667 651.414L209.646 575.477C211.4 572.369 215.767 569.821 219.341 569.821H305.116Z" fill="white"/>
<path d="M142.663 665.221C146.237 665.221 150.604 667.769 152.358 670.876L195.337 746.813C197.092 749.92 197.092 755.017 195.337 758.124L152.358 834.061C150.604 837.168 146.237 839.716 142.663 839.716H56.888C53.314 839.716 48.9473 837.168 47.1928 834.061L4.21419 758.124C2.45969 755.017 2.45969 749.92 4.21419 746.813L47.1928 670.876C48.9473 667.769 53.314 665.221 56.888 665.221H142.663Z" fill="white"/>
<path d="M304.519 759.957C308.093 759.957 312.459 762.505 314.214 765.612L357.192 841.549C358.947 844.656 358.947 849.753 357.192 852.86L314.214 928.797C312.459 931.904 308.093 934.452 304.519 934.452H218.743C215.169 934.452 210.803 931.904 209.048 928.797L166.07 852.86C164.315 849.753 164.315 844.656 166.07 841.549L209.048 765.612C210.803 762.505 215.169 759.957 218.743 759.957H304.519Z" fill="white"/>
<path d="M142.065 856.357C145.639 856.357 150.006 858.905 151.761 862.012L194.739 937.949C196.494 941.057 196.494 946.153 194.739 949.26L151.761 1025.2C150.006 1028.3 145.639 1030.85 142.065 1030.85H56.2901C52.7161 1030.85 48.3494 1028.3 46.5949 1025.2L3.61629 949.26C1.86179 946.153 1.86179 941.057 3.61629 937.949L46.5949 862.012C48.3494 858.905 52.7161 856.357 56.2901 856.357H142.065Z" fill="white"/>
<path d="M306.416 949.442C309.99 949.442 314.357 951.991 316.111 955.098L359.09 1031.03C360.844 1034.14 360.844 1039.24 359.09 1042.35L316.111 1118.28C314.357 1121.39 309.99 1123.94 306.416 1123.94H220.641C217.067 1123.94 212.7 1121.39 210.945 1118.28L167.967 1042.35C166.212 1039.24 166.212 1034.14 167.967 1031.03L210.945 955.098C212.7 951.991 217.067 949.442 220.641 949.442H306.416Z" fill="white"/>
<path d="M143.963 1044.84C147.537 1044.84 151.904 1047.39 153.658 1050.5L196.637 1126.43C198.391 1129.54 198.391 1134.64 196.637 1137.74L153.658 1213.68C151.904 1216.79 147.537 1219.34 143.963 1219.34H58.1876C54.6136 1219.34 50.2468 1216.79 48.4924 1213.68L5.51375 1137.74C3.75925 1134.64 3.75925 1129.54 5.51375 1126.43L48.4924 1050.5C50.2468 1047.39 54.6136 1044.84 58.1876 1044.84H143.963Z" fill="white"/>
<path d="M629.867 190.552C633.441 190.552 637.807 193.1 639.562 196.207L682.541 272.144C684.295 275.251 684.295 280.347 682.541 283.455L639.562 359.392C637.807 362.499 633.441 365.047 629.867 365.047H544.091C540.518 365.047 536.151 362.499 534.396 359.392L491.418 283.455C489.663 280.347 489.663 275.251 491.418 272.144L534.396 196.207C536.151 193.1 540.518 190.552 544.091 190.552H629.867Z" fill="white"/>
<path d="M467.414 94.8271C470.988 94.8271 475.354 97.3753 477.109 100.482L520.087 176.42C521.842 179.527 521.842 184.623 520.087 187.73L477.109 263.667C475.354 266.775 470.988 269.323 467.414 269.323H381.638C378.064 269.323 373.698 266.775 371.943 263.667L328.965 187.73C327.21 184.623 327.21 179.527 328.965 176.42L371.943 100.482C373.698 97.3753 378.064 94.8271 381.638 94.8271H467.414Z" fill="#3E70C7"/>
<path d="M467.414 285.938C470.988 285.938 475.354 288.486 477.109 291.593L520.087 367.53C521.842 370.637 521.842 375.734 520.087 378.841L477.109 454.778C475.354 457.885 470.988 460.433 467.414 460.433H381.638C378.064 460.433 373.698 457.885 371.943 454.778L328.965 378.841C327.21 375.734 327.21 370.637 328.965 367.53L371.943 291.593C373.698 288.486 378.064 285.938 381.638 285.938H467.414Z" fill="white"/>
<path d="M629.269 380.674C632.843 380.674 637.21 383.222 638.964 386.329L681.943 462.266C683.697 465.373 683.697 470.47 681.943 473.577L638.964 549.514C637.21 552.621 632.843 555.169 629.269 555.169H543.494C539.92 555.169 535.553 552.621 533.798 549.514L490.82 473.577C489.065 470.47 489.065 465.373 490.82 462.266L533.798 386.329C535.553 383.222 539.92 380.674 543.494 380.674H629.269Z" fill="#3E70C7"/>
<path d="M466.816 477.074C470.39 477.074 474.756 479.622 476.511 482.73L519.49 558.667C521.244 561.774 521.244 566.87 519.49 569.977L476.511 645.914C474.756 649.022 470.39 651.57 466.816 651.57H381.04C377.467 651.57 373.1 649.022 371.345 645.914L328.367 569.977C326.612 566.87 326.612 561.774 328.367 558.667L371.345 482.73C373.1 479.622 377.467 477.074 381.04 477.074H466.816Z" fill="white"/>
<path d="M633.168 0.428955C636.742 0.428955 641.108 2.97709 642.863 6.08427L685.842 82.0214C687.596 85.1286 687.596 90.2249 685.842 93.3321L642.863 169.269C641.108 172.376 636.742 174.925 633.168 174.925H547.393C543.819 174.925 539.452 172.376 537.697 169.269L494.719 93.3321C492.964 90.2249 492.964 85.1286 494.719 82.0214L537.697 6.08427C539.452 2.97709 543.819 0.428955 547.393 0.428955H633.168Z" fill="white"/>
<path d="M632.167 570.263C635.741 570.263 640.108 572.811 641.862 575.918L684.841 651.856C686.595 654.963 686.595 660.059 684.841 663.166L641.862 739.103C640.108 742.211 635.741 744.759 632.167 744.759H546.392C542.818 744.759 538.451 742.211 536.697 739.103L493.718 663.166C491.963 660.059 491.963 654.963 493.718 651.856L536.697 575.918C538.451 572.811 542.818 570.263 546.392 570.263H632.167Z" fill="white"/>
<path d="M469.714 665.649C473.288 665.649 477.655 668.198 479.409 671.305L522.388 747.242C524.142 750.349 524.142 755.445 522.388 758.552L479.409 834.49C477.655 837.597 473.288 840.145 469.714 840.145H383.939C380.365 840.145 375.998 837.597 374.243 834.49L331.265 758.552C329.51 755.445 329.51 750.349 331.265 747.242L374.243 671.305C375.998 668.198 380.365 665.649 383.939 665.649H469.714Z" fill="white"/>
<path d="M631.569 760.386C635.143 760.386 639.51 762.934 641.264 766.041L684.243 841.978C685.997 845.085 685.997 850.182 684.243 853.289L641.264 929.226C639.51 932.333 635.143 934.881 631.569 934.881H545.794C542.22 934.881 537.853 932.333 536.099 929.226L493.12 853.289C491.366 850.182 491.366 845.085 493.12 841.978L536.099 766.041C537.853 762.934 542.22 760.386 545.794 760.386H631.569Z" fill="white"/>
<path d="M469.116 856.786C472.69 856.786 477.057 859.334 478.811 862.441L521.79 938.379C523.544 941.486 523.544 946.582 521.79 949.689L478.811 1025.63C477.057 1028.73 472.69 1031.28 469.116 1031.28H383.341C379.767 1031.28 375.4 1028.73 373.646 1025.63L330.667 949.689C328.912 946.582 328.912 941.486 330.667 938.379L373.646 862.441C375.4 859.334 379.767 856.786 383.341 856.786H469.116Z" fill="#3E70C7"/>
<path d="M633.467 949.884C637.041 949.884 641.407 952.432 643.162 955.54L686.14 1031.48C687.895 1034.58 687.895 1039.68 686.14 1042.79L643.162 1118.72C641.407 1121.83 637.041 1124.38 633.467 1124.38H547.691C544.117 1124.38 539.751 1121.83 537.996 1118.72L495.018 1042.79C493.263 1039.68 493.263 1034.58 495.018 1031.48L537.996 955.54C539.751 952.432 544.117 949.884 547.691 949.884H633.467Z" fill="white"/>
<path d="M471.013 1045.27C474.587 1045.27 478.954 1047.82 480.709 1050.93L523.687 1126.86C525.442 1129.97 525.442 1135.07 523.687 1138.17L480.709 1214.11C478.954 1217.22 474.587 1219.77 471.013 1219.77H385.238C381.664 1219.77 377.298 1217.22 375.543 1214.11L332.564 1138.17C330.81 1135.07 330.81 1129.97 332.564 1126.86L375.543 1050.93C377.298 1047.82 381.664 1045.27 385.238 1045.27H471.013Z" fill="white"/>
<path d="M956.294 190.331C959.868 190.331 964.234 192.879 965.989 195.986L1008.97 271.923C1010.72 275.03 1010.72 280.127 1008.97 283.234L965.989 359.171C964.234 362.278 959.868 364.826 956.294 364.826H870.519C866.945 364.826 862.578 362.278 860.823 359.171L817.845 283.234C816.09 280.127 816.09 275.03 817.845 271.923L860.823 195.986C862.578 192.879 866.945 190.331 870.519 190.331H956.294Z" fill="white"/>
<path d="M793.84 94.6191C797.414 94.6191 801.781 97.1673 803.536 100.274L846.514 176.212C848.269 179.319 848.269 184.415 846.514 187.522L803.536 263.459C801.781 266.567 797.414 269.115 793.84 269.115H708.065C704.491 269.115 700.124 266.567 698.37 263.459L655.391 187.522C653.637 184.415 653.637 179.319 655.391 176.212L698.37 100.274C700.124 97.1673 704.491 94.6191 708.065 94.6191H793.84Z" fill="#3E70C7"/>
<path d="M793.84 285.73C797.414 285.73 801.781 288.278 803.536 291.385L846.514 367.322C848.269 370.429 848.269 375.526 846.514 378.633L803.536 454.57C801.781 457.677 797.414 460.225 793.84 460.225H708.065C704.491 460.225 700.124 457.677 698.37 454.57L655.391 378.633C653.637 375.526 653.637 370.429 655.391 367.322L698.37 291.385C700.124 288.278 704.491 285.73 708.065 285.73H793.84Z" fill="white"/>
<path d="M955.709 380.466C959.283 380.466 963.65 383.014 965.404 386.121L1008.38 462.058C1010.14 465.165 1010.14 470.262 1008.38 473.369L965.404 549.306C963.65 552.413 959.283 554.961 955.709 554.961H869.934C866.36 554.961 861.993 552.413 860.238 549.306L817.26 473.369C815.505 470.262 815.505 465.165 817.26 462.058L860.238 386.121C861.993 383.014 866.36 380.466 869.934 380.466H955.709Z" fill="white"/>
<path d="M793.256 476.853C796.83 476.853 801.196 479.401 802.951 482.508L845.929 558.445C847.684 561.553 847.684 566.649 845.929 569.756L802.951 645.693C801.196 648.8 796.83 651.349 793.256 651.349H707.48C703.906 651.349 699.54 648.8 697.785 645.693L654.807 569.756C653.052 566.649 653.052 561.553 654.807 558.445L697.785 482.508C699.54 479.401 703.906 476.853 707.48 476.853H793.256Z" fill="white"/>
<path d="M959.608 0.220947C963.182 0.220947 967.548 2.76909 969.303 5.87626L1012.28 81.8134C1014.04 84.9206 1014.04 90.0169 1012.28 93.1241L969.303 169.061C967.548 172.168 963.182 174.717 959.608 174.717H873.832C870.259 174.717 865.892 172.168 864.137 169.061L821.159 93.1241C819.404 90.0169 819.404 84.9206 821.159 81.8134L864.137 5.87626C865.892 2.76909 870.259 0.220947 873.832 0.220947H959.608Z" fill="white"/>
<path d="M958.594 570.042C962.168 570.042 966.535 572.591 968.289 575.698L1011.27 651.635C1013.02 654.742 1013.02 659.838 1011.27 662.946L968.289 738.883C966.535 741.99 962.168 744.538 958.594 744.538H872.819C869.245 744.538 864.878 741.99 863.124 738.883L820.145 662.946C818.39 659.838 818.39 654.742 820.145 651.635L863.124 575.698C864.878 572.591 869.245 570.042 872.819 570.042H958.594Z" fill="white"/>
<path d="M796.141 665.441C799.715 665.441 804.082 667.99 805.836 671.097L848.815 747.034C850.569 750.141 850.569 755.237 848.815 758.345L805.836 834.282C804.082 837.389 799.715 839.937 796.141 839.937H710.366C706.792 839.937 702.425 837.389 700.67 834.282L657.692 758.345C655.937 755.237 655.937 750.141 657.692 747.034L700.67 671.097C702.425 667.99 706.792 665.441 710.366 665.441H796.141Z" fill="#3E70C7"/>
<path d="M958.009 760.178C961.583 760.178 965.95 762.726 967.704 765.833L1010.68 841.77C1012.44 844.877 1012.44 849.974 1010.68 853.081L967.704 929.018C965.95 932.125 961.583 934.673 958.009 934.673H872.234C868.66 934.673 864.293 932.125 862.539 929.018L819.56 853.081C817.806 849.974 817.806 844.877 819.56 841.77L862.539 765.833C864.293 762.726 868.66 760.178 872.234 760.178H958.009Z" fill="white"/>
<path d="M795.556 856.565C799.13 856.565 803.497 859.113 805.251 862.22L848.23 938.157C849.984 941.265 849.984 946.361 848.23 949.468L805.251 1025.41C803.497 1028.51 799.13 1031.06 795.556 1031.06H709.781C706.207 1031.06 701.84 1028.51 700.086 1025.41L657.107 949.468C655.352 946.361 655.352 941.265 657.107 938.157L700.086 862.22C701.84 859.113 706.207 856.565 709.781 856.565H795.556Z" fill="white"/>
<path d="M959.894 949.663C963.468 949.663 967.834 952.211 969.589 955.318L1012.57 1031.26C1014.32 1034.36 1014.32 1039.46 1012.57 1042.57L969.589 1118.5C967.834 1121.61 963.468 1124.16 959.894 1124.16H874.118C870.544 1124.16 866.178 1121.61 864.423 1118.5L821.445 1042.57C819.69 1039.46 819.69 1034.36 821.445 1031.26L864.423 955.318C866.178 952.211 870.544 949.663 874.118 949.663H959.894Z" fill="#3E70C7"/>
<path d="M797.44 1045.06C801.014 1045.06 805.381 1047.61 807.136 1050.72L850.114 1126.65C851.869 1129.76 851.869 1134.86 850.114 1137.97L807.136 1213.9C805.381 1217.01 801.014 1219.56 797.44 1219.56H711.665C708.091 1219.56 703.725 1217.01 701.97 1213.9L658.991 1137.97C657.237 1134.86 657.237 1129.76 658.991 1126.65L701.97 1050.72C703.725 1047.61 708.091 1045.06 711.665 1045.06H797.44Z" fill="white"/>
<path d="M1283.34 190.772C1286.92 190.772 1291.29 193.321 1293.04 196.428L1336.02 272.365C1337.77 275.472 1337.77 280.568 1336.02 283.676L1293.04 359.613C1291.29 362.72 1286.92 365.268 1283.34 365.268H1197.57C1194 365.268 1189.63 362.72 1187.87 359.613L1144.9 283.676C1143.14 280.568 1143.14 275.472 1144.9 272.365L1187.87 196.428C1189.63 193.321 1194 190.772 1197.57 190.772H1283.34Z" fill="white"/>
<path d="M1120.89 95.0483C1124.47 95.0483 1128.83 97.5965 1130.59 100.704L1173.56 176.641C1175.32 179.748 1175.32 184.844 1173.56 187.951L1130.59 263.889C1128.83 266.996 1124.47 269.544 1120.89 269.544H1035.12C1031.54 269.544 1027.18 266.996 1025.42 263.889L982.442 187.951C980.688 184.844 980.688 179.748 982.442 176.641L1025.42 100.704C1027.18 97.5965 1031.54 95.0483 1035.12 95.0483H1120.89Z" fill="white"/>
<path d="M1120.89 286.159C1124.47 286.159 1128.83 288.707 1130.59 291.814L1173.56 367.751C1175.32 370.858 1175.32 375.955 1173.56 379.062L1130.59 454.999C1128.83 458.106 1124.47 460.654 1120.89 460.654H1035.12C1031.54 460.654 1027.18 458.106 1025.42 454.999L982.442 379.062C980.688 375.955 980.688 370.858 982.442 367.751L1025.42 291.814C1027.18 288.707 1031.54 286.159 1035.12 286.159H1120.89Z" fill="#3E70C7"/>
<path d="M1282.75 380.895C1286.32 380.895 1290.69 383.443 1292.44 386.55L1335.42 462.487C1337.17 465.595 1337.17 470.691 1335.42 473.798L1292.44 549.735C1290.69 552.842 1286.32 555.391 1282.75 555.391H1196.97C1193.4 555.391 1189.03 552.842 1187.28 549.735L1144.3 473.798C1142.54 470.691 1142.54 465.595 1144.3 462.487L1187.28 386.55C1189.03 383.443 1193.4 380.895 1196.97 380.895H1282.75Z" fill="white"/>
<path d="M1120.29 477.295C1123.87 477.295 1128.23 479.844 1129.99 482.951L1172.97 558.888C1174.72 561.995 1174.72 567.091 1172.97 570.199L1129.99 646.136C1128.23 649.243 1123.87 651.791 1120.29 651.791H1034.52C1030.94 651.791 1026.58 649.243 1024.82 646.136L981.844 570.199C980.09 567.091 980.09 561.995 981.844 558.888L1024.82 482.951C1026.58 479.844 1030.94 477.295 1034.52 477.295H1120.29Z" fill="white"/>
<path d="M1286.65 0.650146C1290.22 0.650146 1294.59 3.19829 1296.34 6.30546L1339.32 82.2426C1341.07 85.3498 1341.07 90.4461 1339.32 93.5533L1296.34 169.49C1294.59 172.598 1290.22 175.146 1286.65 175.146H1200.87C1197.3 175.146 1192.93 172.598 1191.17 169.49L1148.2 93.5533C1146.44 90.4461 1146.44 85.3498 1148.2 82.2426L1191.17 6.30546C1192.93 3.19829 1197.3 0.650146 1200.87 0.650146H1286.65Z" fill="white"/>
<path d="M1285.64 570.484C1289.22 570.484 1293.59 573.033 1295.34 576.14L1338.32 652.077C1340.07 655.184 1340.07 660.28 1338.32 663.387L1295.34 739.325C1293.59 742.432 1289.22 744.98 1285.64 744.98H1199.87C1196.3 744.98 1191.93 742.432 1190.17 739.325L1147.2 663.387C1145.44 660.28 1145.44 655.184 1147.2 652.077L1190.17 576.14C1191.93 573.033 1196.3 570.484 1199.87 570.484H1285.64Z" fill="white"/>
<path d="M1123.19 665.871C1126.77 665.871 1131.13 668.419 1132.89 671.526L1175.87 747.463C1177.62 750.57 1177.62 755.667 1175.87 758.774L1132.89 834.711C1131.13 837.818 1126.77 840.366 1123.19 840.366H1037.42C1033.84 840.366 1029.48 837.818 1027.72 834.711L984.742 758.774C982.988 755.667 982.988 750.57 984.742 747.463L1027.72 671.526C1029.48 668.419 1033.84 665.871 1037.42 665.871H1123.19Z" fill="#3E70C7"/>
<path d="M1285.05 760.607C1288.62 760.607 1292.99 763.155 1294.74 766.262L1337.72 842.199C1339.47 845.307 1339.47 850.403 1337.72 853.51L1294.74 929.447C1292.99 932.554 1288.62 935.103 1285.05 935.103H1199.27C1195.7 935.103 1191.33 932.554 1189.58 929.447L1146.6 853.51C1144.84 850.403 1144.84 845.307 1146.6 842.199L1189.58 766.262C1191.33 763.155 1195.7 760.607 1199.27 760.607H1285.05Z" fill="white"/>
<path d="M1122.59 857.007C1126.17 857.007 1130.53 859.555 1132.29 862.662L1175.27 938.599C1177.02 941.707 1177.02 946.803 1175.27 949.91L1132.29 1025.85C1130.53 1028.95 1126.17 1031.5 1122.59 1031.5H1036.82C1033.24 1031.5 1028.88 1028.95 1027.12 1025.85L984.144 949.91C982.39 946.803 982.39 941.707 984.144 938.599L1027.12 862.662C1028.88 859.555 1033.24 857.007 1036.82 857.007H1122.59Z" fill="white"/>
<path d="M1286.94 950.105C1290.52 950.105 1294.88 952.654 1296.64 955.761L1339.62 1031.7C1341.37 1034.81 1341.37 1039.9 1339.62 1043.01L1296.64 1118.95C1294.88 1122.05 1290.52 1124.6 1286.94 1124.6H1201.17C1197.59 1124.6 1193.23 1122.05 1191.47 1118.95L1148.5 1043.01C1146.74 1039.9 1146.74 1034.81 1148.5 1031.7L1191.47 955.761C1193.23 952.654 1197.59 950.105 1201.17 950.105H1286.94Z" fill="#3E70C7"/>
<path d="M1124.49 1045.49C1128.07 1045.49 1132.43 1048.04 1134.19 1051.15L1177.16 1127.08C1178.92 1130.19 1178.92 1135.29 1177.16 1138.39L1134.19 1214.33C1132.43 1217.44 1128.07 1219.99 1124.49 1219.99H1038.72C1035.14 1219.99 1030.78 1217.44 1029.02 1214.33L986.042 1138.39C984.287 1135.29 984.287 1130.19 986.042 1127.08L1029.02 1051.15C1030.78 1048.04 1035.14 1045.49 1038.72 1045.49H1124.49Z" fill="white"/>
<path d="M1608.48 190.552C1612.06 190.552 1616.43 193.1 1618.18 196.207L1661.16 272.144C1662.91 275.251 1662.91 280.347 1661.16 283.455L1618.18 359.392C1616.43 362.499 1612.06 365.047 1608.48 365.047H1522.71C1519.14 365.047 1514.77 362.499 1513.01 359.392L1470.04 283.455C1468.28 280.347 1468.28 275.251 1470.04 272.144L1513.01 196.207C1514.77 193.1 1519.14 190.552 1522.71 190.552H1608.48Z" fill="#3E70C7"/>
<path d="M1446.03 94.8271C1449.61 94.8271 1453.97 97.3753 1455.73 100.482L1498.71 176.42C1500.46 179.527 1500.46 184.623 1498.71 187.73L1455.73 263.667C1453.97 266.775 1449.61 269.323 1446.03 269.323H1360.26C1356.68 269.323 1352.32 266.775 1350.56 263.667L1307.58 187.73C1305.83 184.623 1305.83 179.527 1307.58 176.42L1350.56 100.482C1352.32 97.3753 1356.68 94.8271 1360.26 94.8271H1446.03Z" fill="white"/>
<path d="M1446.03 285.938C1449.61 285.938 1453.97 288.486 1455.73 291.593L1498.71 367.53C1500.46 370.637 1500.46 375.734 1498.71 378.841L1455.73 454.778C1453.97 457.885 1449.61 460.433 1446.03 460.433H1360.26C1356.68 460.433 1352.32 457.885 1350.56 454.778L1307.58 378.841C1305.83 375.734 1305.83 370.637 1307.58 367.53L1350.56 291.593C1352.32 288.486 1356.68 285.938 1360.26 285.938H1446.03Z" fill="white"/>
<path d="M1607.89 380.674C1611.46 380.674 1615.83 383.222 1617.58 386.329L1660.56 462.266C1662.32 465.373 1662.32 470.47 1660.56 473.577L1617.58 549.514C1615.83 552.621 1611.46 555.169 1607.89 555.169H1522.11C1518.54 555.169 1514.17 552.621 1512.42 549.514L1469.44 473.577C1467.68 470.47 1467.68 465.373 1469.44 462.266L1512.42 386.329C1514.17 383.222 1518.54 380.674 1522.11 380.674H1607.89Z" fill="white"/>
<path d="M1445.43 477.074C1449.01 477.074 1453.37 479.622 1455.13 482.73L1498.11 558.667C1499.86 561.774 1499.86 566.87 1498.11 569.977L1455.13 645.914C1453.37 649.022 1449.01 651.57 1445.43 651.57H1359.66C1356.08 651.57 1351.72 649.022 1349.96 645.914L1306.98 569.977C1305.23 566.87 1305.23 561.774 1306.98 558.667L1349.96 482.73C1351.72 479.622 1356.08 477.074 1359.66 477.074H1445.43Z" fill="#3E70C7"/>
<path d="M1611.79 0.428955C1615.36 0.428955 1619.73 2.97709 1621.48 6.08427L1664.46 82.0214C1666.21 85.1286 1666.21 90.2249 1664.46 93.3321L1621.48 169.269C1619.73 172.376 1615.36 174.925 1611.79 174.925H1526.01C1522.44 174.925 1518.07 172.376 1516.32 169.269L1473.34 93.3321C1471.58 90.2249 1471.58 85.1286 1473.34 82.0214L1516.32 6.08427C1518.07 2.97709 1522.44 0.428955 1526.01 0.428955H1611.79Z" fill="white"/>
<path d="M1610.79 570.263C1614.36 570.263 1618.73 572.811 1620.48 575.918L1663.46 651.856C1665.21 654.963 1665.21 660.059 1663.46 663.166L1620.48 739.103C1618.73 742.211 1614.36 744.759 1610.79 744.759H1525.01C1521.44 744.759 1517.07 742.211 1515.31 739.103L1472.34 663.166C1470.58 660.059 1470.58 654.963 1472.34 651.856L1515.31 575.918C1517.07 572.811 1521.44 570.263 1525.01 570.263H1610.79Z" fill="white"/>
<path d="M1448.33 665.649C1451.91 665.649 1456.27 668.198 1458.03 671.305L1501.01 747.242C1502.76 750.349 1502.76 755.445 1501.01 758.552L1458.03 834.49C1456.27 837.597 1451.91 840.145 1448.33 840.145H1362.56C1358.98 840.145 1354.62 837.597 1352.86 834.49L1309.88 758.552C1308.13 755.445 1308.13 750.349 1309.88 747.242L1352.86 671.305C1354.62 668.198 1358.98 665.649 1362.56 665.649H1448.33Z" fill="white"/>
<path d="M1610.19 760.386C1613.76 760.386 1618.13 762.934 1619.88 766.041L1662.86 841.978C1664.62 845.085 1664.62 850.182 1662.86 853.289L1619.88 929.226C1618.13 932.333 1613.76 934.881 1610.19 934.881H1524.41C1520.84 934.881 1516.47 932.333 1514.72 929.226L1471.74 853.289C1469.98 850.182 1469.98 845.085 1471.74 841.978L1514.72 766.041C1516.47 762.934 1520.84 760.386 1524.41 760.386H1610.19Z" fill="#3E70C7"/>
<path d="M1447.73 856.786C1451.31 856.786 1455.67 859.334 1457.43 862.441L1500.41 938.379C1502.16 941.486 1502.16 946.582 1500.41 949.689L1457.43 1025.63C1455.67 1028.73 1451.31 1031.28 1447.73 1031.28H1361.96C1358.38 1031.28 1354.02 1028.73 1352.26 1025.63L1309.28 949.689C1307.53 946.582 1307.53 941.486 1309.28 938.379L1352.26 862.441C1354.02 859.334 1358.38 856.786 1361.96 856.786H1447.73Z" fill="white"/>
<path d="M1612.08 949.884C1615.66 949.884 1620.03 952.432 1621.78 955.54L1664.76 1031.48C1666.51 1034.58 1666.51 1039.68 1664.76 1042.79L1621.78 1118.72C1620.03 1121.83 1615.66 1124.38 1612.08 1124.38H1526.31C1522.74 1124.38 1518.37 1121.83 1516.61 1118.72L1473.64 1042.79C1471.88 1039.68 1471.88 1034.58 1473.64 1031.48L1516.61 955.54C1518.37 952.432 1522.74 949.884 1526.31 949.884H1612.08Z" fill="white"/>
<path d="M1449.63 1045.27C1453.21 1045.27 1457.57 1047.82 1459.33 1050.93L1502.31 1126.86C1504.06 1129.97 1504.06 1135.07 1502.31 1138.17L1459.33 1214.11C1457.57 1217.22 1453.21 1219.77 1449.63 1219.77H1363.86C1360.28 1219.77 1355.92 1217.22 1354.16 1214.11L1311.18 1138.17C1309.43 1135.07 1309.43 1129.97 1311.18 1126.86L1354.16 1050.93C1355.92 1047.82 1360.28 1045.27 1363.86 1045.27H1449.63Z" fill="white"/>
<path d="M1933.39 190.552C1936.97 190.552 1941.33 193.1 1943.09 196.207L1986.06 272.144C1987.82 275.251 1987.82 280.347 1986.06 283.455L1943.09 359.392C1941.33 362.499 1936.97 365.047 1933.39 365.047H1847.62C1844.04 365.047 1839.68 362.499 1837.92 359.392L1794.94 283.455C1793.19 280.347 1793.19 275.251 1794.94 272.144L1837.92 196.207C1839.68 193.1 1844.04 190.552 1847.62 190.552H1933.39Z" fill="white"/>
<path d="M1770.94 94.8271C1774.51 94.8271 1778.88 97.3753 1780.63 100.482L1823.61 176.42C1825.37 179.527 1825.37 184.623 1823.61 187.73L1780.63 263.667C1778.88 266.775 1774.51 269.323 1770.94 269.323H1685.16C1681.59 269.323 1677.22 266.775 1675.47 263.667L1632.49 187.73C1630.73 184.623 1630.73 179.527 1632.49 176.42L1675.47 100.482C1677.22 97.3753 1681.59 94.8271 1685.16 94.8271H1770.94Z" fill="white"/>
<path d="M1770.94 285.938C1774.51 285.938 1778.88 288.486 1780.63 291.593L1823.61 367.53C1825.37 370.637 1825.37 375.734 1823.61 378.841L1780.63 454.778C1778.88 457.885 1774.51 460.433 1770.94 460.433H1685.16C1681.59 460.433 1677.22 457.885 1675.47 454.778L1632.49 378.841C1630.73 375.734 1630.73 370.637 1632.49 367.53L1675.47 291.593C1677.22 288.486 1681.59 285.938 1685.16 285.938H1770.94Z" fill="white"/>
<path d="M1932.79 380.674C1936.37 380.674 1940.73 383.222 1942.49 386.329L1985.47 462.266C1987.22 465.373 1987.22 470.47 1985.47 473.577L1942.49 549.514C1940.73 552.621 1936.37 555.169 1932.79 555.169H1847.02C1843.44 555.169 1839.08 552.621 1837.32 549.514L1794.34 473.577C1792.59 470.47 1792.59 465.373 1794.34 462.266L1837.32 386.329C1839.08 383.222 1843.44 380.674 1847.02 380.674H1932.79Z" fill="white"/>
<path d="M1770.34 477.074C1773.91 477.074 1778.28 479.622 1780.04 482.73L1823.01 558.667C1824.77 561.774 1824.77 566.87 1823.01 569.977L1780.04 645.914C1778.28 649.022 1773.91 651.57 1770.34 651.57H1684.56C1680.99 651.57 1676.62 649.022 1674.87 645.914L1631.89 569.977C1630.14 566.87 1630.14 561.774 1631.89 558.667L1674.87 482.73C1676.62 479.622 1680.99 477.074 1684.56 477.074H1770.34Z" fill="white"/>
<path d="M1936.69 0.428955C1940.27 0.428955 1944.63 2.97709 1946.39 6.08427L1989.37 82.0214C1991.12 85.1286 1991.12 90.2249 1989.37 93.3321L1946.39 169.269C1944.63 172.376 1940.27 174.925 1936.69 174.925H1850.92C1847.34 174.925 1842.98 172.376 1841.22 169.269L1798.24 93.3321C1796.49 90.2249 1796.49 85.1286 1798.24 82.0214L1841.22 6.08427C1842.98 2.97709 1847.34 0.428955 1850.92 0.428955H1936.69Z" fill="white"/>
<path d="M1935.69 570.263C1939.27 570.263 1943.63 572.811 1945.39 575.918L1988.37 651.856C1990.12 654.963 1990.12 660.059 1988.37 663.166L1945.39 739.103C1943.63 742.211 1939.27 744.759 1935.69 744.759H1849.92C1846.34 744.759 1841.98 742.211 1840.22 739.103L1797.24 663.166C1795.49 660.059 1795.49 654.963 1797.24 651.856L1840.22 575.918C1841.98 572.811 1846.34 570.263 1849.92 570.263H1935.69Z" fill="white"/>
<path d="M1773.24 665.649C1776.81 665.649 1781.18 668.198 1782.93 671.305L1825.91 747.242C1827.67 750.349 1827.67 755.445 1825.91 758.552L1782.93 834.49C1781.18 837.597 1776.81 840.145 1773.24 840.145H1687.46C1683.89 840.145 1679.52 837.597 1677.77 834.49L1634.79 758.552C1633.03 755.445 1633.03 750.349 1634.79 747.242L1677.77 671.305C1679.52 668.198 1683.89 665.649 1687.46 665.649H1773.24Z" fill="white"/>
<path d="M1935.09 760.386C1938.67 760.386 1943.03 762.934 1944.79 766.041L1987.77 841.978C1989.52 845.085 1989.52 850.182 1987.77 853.289L1944.79 929.226C1943.03 932.333 1938.67 934.881 1935.09 934.881H1849.32C1845.74 934.881 1841.38 932.333 1839.62 929.226L1796.64 853.289C1794.89 850.182 1794.89 845.085 1796.64 841.978L1839.62 766.041C1841.38 762.934 1845.74 760.386 1849.32 760.386H1935.09Z" fill="white"/>
<path d="M1772.64 856.786C1776.21 856.786 1780.58 859.334 1782.34 862.441L1825.31 938.379C1827.07 941.486 1827.07 946.582 1825.31 949.689L1782.34 1025.63C1780.58 1028.73 1776.21 1031.28 1772.64 1031.28H1686.87C1683.29 1031.28 1678.92 1028.73 1677.17 1025.63L1634.19 949.689C1632.44 946.582 1632.44 941.486 1634.19 938.379L1677.17 862.441C1678.92 859.334 1683.29 856.786 1686.87 856.786H1772.64Z" fill="white"/>
<path d="M1936.99 949.884C1940.57 949.884 1944.93 952.432 1946.69 955.54L1989.66 1031.48C1991.42 1034.58 1991.42 1039.68 1989.66 1042.79L1946.69 1118.72C1944.93 1121.83 1940.57 1124.38 1936.99 1124.38H1851.22C1847.64 1124.38 1843.27 1121.83 1841.52 1118.72L1798.54 1042.79C1796.79 1039.68 1796.79 1034.58 1798.54 1031.48L1841.52 955.54C1843.27 952.432 1847.64 949.884 1851.22 949.884H1936.99Z" fill="white"/>
<path d="M1774.54 1045.27C1778.11 1045.27 1782.48 1047.82 1784.23 1050.93L1827.21 1126.86C1828.97 1129.97 1828.97 1135.07 1827.21 1138.17L1784.23 1214.11C1782.48 1217.22 1778.11 1219.77 1774.54 1219.77H1688.76C1685.19 1219.77 1680.82 1217.22 1679.07 1214.11L1636.09 1138.17C1634.33 1135.07 1634.33 1129.97 1636.09 1126.86L1679.07 1050.93C1680.82 1047.82 1685.19 1045.27 1688.76 1045.27H1774.54Z" fill="white"/>
</svg>
