<svg width="1027" height="1027" viewBox="0 0 1027 1027" fill="none" xmlns="http://www.w3.org/2000/svg">
<circle cx="513.5" cy="513.5" r="513.5" fill="url(#paint0_linear_4_14)"/>
<path fill-rule="evenodd" clip-rule="evenodd" d="M115.089 500.156C114.586 506.38 114.224 512.645 114.004 518.949C106.178 743.04 281.496 931.045 505.587 938.871C729.678 946.696 917.684 771.378 925.509 547.287C925.729 540.983 925.804 534.708 925.738 528.464L115.089 500.156Z" fill="white"/>
<g filter="url(#filter0_d_4_14)">
<mask id="path-3-outside-1_4_14" maskUnits="userSpaceOnUse" x="237.03" y="129.621" width="613.011" height="346.811" fill="black">
<rect fill="white" x="237.03" y="129.621" width="613.011" height="346.811"/>
<path d="M561.11 287.078C559.975 319.577 555.39 345.947 547.354 366.187C535.139 396.98 515.928 420.348 489.721 436.288C464.418 451.528 434.858 458.557 401.041 457.376C345.996 455.454 304.415 435.241 276.299 396.736C255.038 367.558 245.096 333.279 246.471 293.899C247.994 250.273 262.304 214.056 289.4 185.248C320.153 152.463 362.027 136.996 415.022 138.847C450.45 140.084 480.144 150.209 504.104 169.221C521.222 182.717 535.563 202.272 547.127 227.887L472.058 255.826C466.254 241.552 459.302 230.756 451.203 223.438C439.546 213.064 425.447 207.588 408.904 207.01C375.087 205.829 350.906 222.5 336.363 257.023C330.935 269.732 327.981 282.967 327.501 296.729C326.504 325.276 334.676 349.379 352.018 369.039C364.844 383.705 382.384 391.426 404.636 392.203C424.399 392.893 440.265 387.658 452.234 376.497C460.113 369.15 465.484 358.051 468.347 343.201L404.446 340.969L406.516 281.679L561.11 287.078ZM839.286 361.431C838.299 389.685 828.157 413.589 808.859 433.142C785.455 456.949 753.478 468.145 712.926 466.729C672.229 465.307 641.037 451.906 619.351 426.524C601.464 405.673 593.034 380.534 594.062 351.108C594.987 324.611 605.177 301.442 624.631 281.601C648.187 257.652 680.899 246.409 722.768 247.871C761.27 249.216 791.581 262.66 813.701 288.203C831.734 309.06 840.262 333.469 839.286 361.431ZM764.405 358.816C764.865 345.64 760.569 334.351 751.516 324.947C742.615 315.402 731.577 310.4 718.402 309.939C703.469 309.418 691.124 314.557 681.366 325.356C673.442 334.02 669.28 344.061 668.882 355.48C668.478 367.045 671.926 377.426 679.227 386.622C688.208 398.075 700.164 404.062 715.097 404.584C728.419 405.049 739.849 400.904 749.389 392.15C758.934 383.249 763.939 372.138 764.405 358.816Z"/>
</mask>
<path d="M561.11 287.078C559.975 319.577 555.39 345.947 547.354 366.187C535.139 396.98 515.928 420.348 489.721 436.288C464.418 451.528 434.858 458.557 401.041 457.376C345.996 455.454 304.415 435.241 276.299 396.736C255.038 367.558 245.096 333.279 246.471 293.899C247.994 250.273 262.304 214.056 289.4 185.248C320.153 152.463 362.027 136.996 415.022 138.847C450.45 140.084 480.144 150.209 504.104 169.221C521.222 182.717 535.563 202.272 547.127 227.887L472.058 255.826C466.254 241.552 459.302 230.756 451.203 223.438C439.546 213.064 425.447 207.588 408.904 207.01C375.087 205.829 350.906 222.5 336.363 257.023C330.935 269.732 327.981 282.967 327.501 296.729C326.504 325.276 334.676 349.379 352.018 369.039C364.844 383.705 382.384 391.426 404.636 392.203C424.399 392.893 440.265 387.658 452.234 376.497C460.113 369.15 465.484 358.051 468.347 343.201L404.446 340.969L406.516 281.679L561.11 287.078ZM839.286 361.431C838.299 389.685 828.157 413.589 808.859 433.142C785.455 456.949 753.478 468.145 712.926 466.729C672.229 465.307 641.037 451.906 619.351 426.524C601.464 405.673 593.034 380.534 594.062 351.108C594.987 324.611 605.177 301.442 624.631 281.601C648.187 257.652 680.899 246.409 722.768 247.871C761.27 249.216 791.581 262.66 813.701 288.203C831.734 309.06 840.262 333.469 839.286 361.431ZM764.405 358.816C764.865 345.64 760.569 334.351 751.516 324.947C742.615 315.402 731.577 310.4 718.402 309.939C703.469 309.418 691.124 314.557 681.366 325.356C673.442 334.02 669.28 344.061 668.882 355.48C668.478 367.045 671.926 377.426 679.227 386.622C688.208 398.075 700.164 404.062 715.097 404.584C728.419 405.049 739.849 400.904 749.389 392.15C758.934 383.249 763.939 372.138 764.405 358.816Z" fill="#9DC3E7"/>
<path d="M561.11 287.078L564.108 287.182L564.213 284.184L561.214 284.079L561.11 287.078ZM547.354 366.187L544.566 365.08L544.566 365.081L547.354 366.187ZM489.721 436.288L491.269 438.858L491.28 438.852L489.721 436.288ZM276.299 396.736L273.874 398.503L273.876 398.505L276.299 396.736ZM289.4 185.248L291.586 187.303L291.588 187.3L289.4 185.248ZM504.104 169.221L502.239 171.571L502.247 171.576L504.104 169.221ZM547.127 227.887L548.173 230.698L551.182 229.578L549.861 226.652L547.127 227.887ZM472.058 255.826L469.279 256.956L470.376 259.653L473.105 258.637L472.058 255.826ZM451.203 223.438L453.215 221.212L453.206 221.204L453.198 221.197L451.203 223.438ZM336.363 257.023L339.121 258.202L339.124 258.195L339.127 258.188L336.363 257.023ZM352.018 369.039L354.277 367.064L354.268 367.055L352.018 369.039ZM452.234 376.497L450.188 374.302L452.234 376.497ZM468.347 343.201L471.293 343.769L471.957 340.325L468.452 340.203L468.347 343.201ZM404.446 340.969L401.448 340.864L401.343 343.863L404.341 343.967L404.446 340.969ZM406.516 281.679L406.621 278.681L403.623 278.576L403.518 281.574L406.516 281.679ZM558.112 286.973C556.983 319.282 552.428 345.276 544.566 365.08L550.142 367.294C558.351 346.618 562.966 319.873 564.108 287.182L558.112 286.973ZM544.566 365.081C532.571 395.319 513.766 418.151 488.162 433.725L491.28 438.852C518.09 422.544 537.708 398.642 550.143 367.293L544.566 365.081ZM488.173 433.719C463.437 448.616 434.469 455.542 401.145 454.378L400.936 460.375C435.247 461.573 465.399 454.44 491.269 438.858L488.173 433.719ZM401.145 454.378C346.86 452.482 306.207 432.607 278.721 394.967L273.876 398.505C302.624 437.875 345.132 458.426 400.936 460.375L401.145 454.378ZM278.723 394.969C257.895 366.384 248.115 332.779 249.469 294.004L243.473 293.794C242.077 333.78 252.182 368.732 273.874 398.503L278.723 394.969ZM249.469 294.004C250.97 251.024 265.041 215.525 291.586 187.303L287.215 183.193C259.567 212.587 245.019 249.522 243.473 293.794L249.469 294.004ZM291.588 187.3C321.641 155.262 362.616 140.019 414.917 141.845L415.127 135.849C361.438 133.974 318.665 149.665 287.212 183.196L291.588 187.3ZM414.917 141.845C449.81 143.064 478.858 153.018 502.239 171.571L505.969 166.87C481.429 147.399 451.09 137.105 415.127 135.849L414.917 141.845ZM502.247 171.576C518.893 184.701 532.971 203.822 544.393 229.121L549.861 226.652C538.154 200.722 523.551 180.733 505.962 166.865L502.247 171.576ZM546.08 225.075L471.012 253.014L473.105 258.637L548.173 230.698L546.08 225.075ZM474.837 254.696C468.928 240.164 461.757 228.931 453.215 221.212L449.192 225.663C456.847 232.581 463.58 242.94 469.279 256.956L474.837 254.696ZM453.198 221.197C440.985 210.328 426.204 204.612 409.009 204.012L408.799 210.008C424.689 210.563 438.108 215.799 449.209 225.679L453.198 221.197ZM409.009 204.012C391.558 203.402 376.402 207.403 363.703 216.158C351.027 224.897 341.031 238.214 333.598 255.859L339.127 258.188C346.238 241.31 355.603 229.03 367.109 221.098C378.591 213.181 392.433 209.437 408.799 210.008L409.009 204.012ZM333.604 255.845C328.032 268.893 324.996 282.492 324.503 296.624L330.499 296.833C330.966 283.443 333.839 270.572 339.121 258.202L333.604 255.845ZM324.503 296.624C323.482 325.862 331.872 350.735 349.769 371.024L354.268 367.055C337.481 348.024 329.526 324.689 330.499 296.833L324.503 296.624ZM349.76 371.014C363.212 386.395 381.58 394.4 404.531 395.201L404.74 389.205C383.187 388.452 366.477 381.015 354.277 367.064L349.76 371.014ZM404.531 395.201C424.912 395.913 441.611 390.504 454.28 378.691L450.188 374.302C438.919 384.811 423.885 389.874 404.74 389.205L404.531 395.201ZM454.28 378.691C462.777 370.767 468.356 358.998 471.293 343.769L465.402 342.633C462.611 357.104 457.448 367.532 450.188 374.302L454.28 378.691ZM468.452 340.203L404.551 337.971L404.341 343.967L468.243 346.199L468.452 340.203ZM407.444 341.074L409.515 281.784L403.518 281.574L401.448 340.864L407.444 341.074ZM406.412 284.677L561.005 290.076L561.214 284.079L406.621 278.681L406.412 284.677ZM808.859 433.142L806.724 431.035L806.72 431.039L808.859 433.142ZM619.351 426.524L621.632 424.576L621.628 424.571L619.351 426.524ZM624.631 281.601L622.493 279.497L622.489 279.5L624.631 281.601ZM813.701 288.203L815.97 286.241L815.969 286.239L813.701 288.203ZM751.516 324.947L749.322 326.993L749.338 327.01L749.355 327.028L751.516 324.947ZM681.366 325.356L683.58 327.38L683.586 327.374L683.592 327.367L681.366 325.356ZM679.227 386.622L681.588 384.771L681.582 384.764L681.577 384.757L679.227 386.622ZM749.389 392.15L751.418 394.36L751.427 394.352L751.435 394.344L749.389 392.15ZM836.288 361.326C835.326 388.852 825.476 412.034 806.724 431.035L810.994 435.249C830.837 415.143 841.272 390.518 842.284 361.535L836.288 361.326ZM806.72 431.039C784.03 454.12 752.938 465.124 713.031 463.73L712.822 469.727C754.018 471.165 786.881 459.779 810.999 435.245L806.72 431.039ZM713.031 463.73C672.974 462.332 642.654 449.18 621.632 424.576L617.07 428.473C639.419 454.632 671.483 468.283 712.822 469.727L713.031 463.73ZM621.628 424.571C604.268 404.334 596.057 379.945 597.06 351.213L591.064 351.004C590.012 381.122 598.66 407.011 617.074 428.478L621.628 424.571ZM597.06 351.213C597.958 325.503 607.816 303.035 626.773 283.701L622.489 279.5C602.538 299.848 592.017 323.719 591.064 351.004L597.06 351.213ZM626.77 283.704C649.596 260.498 681.412 249.429 722.663 250.87L722.872 244.873C680.386 243.39 646.777 254.807 622.493 279.497L626.77 283.704ZM722.663 250.87C760.46 252.189 789.938 265.345 811.433 290.167L815.969 286.239C793.224 259.974 762.079 246.242 722.872 244.873L722.663 250.87ZM811.431 290.165C828.961 310.441 837.238 334.108 836.288 361.326L842.284 361.535C843.286 332.83 834.506 307.68 815.97 286.241L811.431 290.165ZM767.403 358.921C767.891 344.943 763.299 332.862 753.678 322.866L749.355 327.028C757.838 335.84 761.838 346.338 761.406 358.711L767.403 358.921ZM753.71 322.901C744.261 312.768 732.468 307.429 718.506 306.941L718.297 312.938C730.686 313.37 740.97 318.037 749.322 326.993L753.71 322.901ZM718.506 306.941C702.717 306.39 689.51 311.869 679.141 323.344L683.592 327.367C692.739 317.244 704.222 312.446 718.297 312.938L718.506 306.941ZM679.153 323.331C670.761 332.506 666.308 343.222 665.884 355.375L671.88 355.585C672.253 344.9 676.123 335.534 683.58 327.38L679.153 323.331ZM665.884 355.375C665.454 367.665 669.14 378.742 676.877 388.487L681.577 384.757C674.712 376.11 671.501 366.426 671.88 355.585L665.884 355.375ZM676.866 388.473C686.41 400.644 699.202 407.031 714.992 407.582L715.201 401.586C701.126 401.094 690.006 395.507 681.588 384.771L676.866 388.473ZM714.992 407.582C729.075 408.074 741.279 403.664 751.418 394.36L747.361 389.94C738.42 398.144 727.762 402.024 715.201 401.586L714.992 407.582ZM751.435 394.344C761.576 384.888 766.91 373.019 767.403 358.921L761.406 358.711C760.968 371.257 756.293 381.611 747.343 389.956L751.435 394.344Z" fill="url(#paint1_linear_4_14)" mask="url(#path-3-outside-1_4_14)"/>
</g>
<g filter="url(#filter1_d_4_14)">
<path d="M384.228 658.799L404.736 659.515L415.113 702.743C417.318 711.826 419.243 720.298 420.89 728.16C422.661 735.907 423.849 741.412 424.456 744.675L425.366 749.57C427.297 738.951 431.198 723.537 437.066 703.33L449.771 659.286L478.014 660.273L441.4 780.388L410.459 779.308L401.183 740.62C398.987 731.298 397.161 723.429 395.704 717.015C394.366 710.604 393.549 706.493 393.253 704.682L392.987 701.971C392.455 706.875 388.771 719.534 381.935 739.948L369.444 777.875L338.502 776.795L310.176 654.412L339.319 655.429L348.914 700.432C350.977 710.109 352.652 718.873 353.939 726.723C355.23 734.453 356.003 739.823 356.258 742.834L356.827 747.176C359.193 737.893 363.81 722.565 370.681 701.192L384.228 658.799ZM528.363 784.866C514.092 784.367 503.207 779.725 495.709 770.938C488.215 762.031 484.703 750.861 485.172 737.429C485.662 723.398 490.142 712.027 498.611 703.318C507.084 694.488 518.097 690.31 531.648 690.783C545.8 691.277 556.62 696.038 564.11 705.065C571.599 714.092 575.107 725.381 574.634 738.933C574.153 752.724 569.797 763.979 561.568 772.697C553.463 781.3 542.394 785.356 528.363 784.866ZM530.746 711.464C524.99 711.263 520.586 713.571 517.536 718.387C514.486 723.204 512.825 729.51 512.553 737.305C512.281 745.1 513.496 751.567 516.198 756.704C519.025 761.726 523.376 764.339 529.253 764.544C535.009 764.745 539.35 762.496 542.276 757.795C545.326 752.978 546.987 746.672 547.259 738.877C547.883 721.008 542.379 711.87 530.746 711.464ZM619.633 695.296L619.043 712.206C620.906 706.988 623.811 702.887 627.758 699.903C631.828 696.803 636.442 695.343 641.599 695.523C644.477 695.624 646.747 695.943 648.41 696.481L647.543 721.306C644.711 719.887 641.436 719.112 637.718 718.982C632.081 718.785 627.451 720.725 623.826 724.801C620.206 728.757 618.277 734.153 618.038 740.989L616.448 786.501L590.184 785.584L593.549 694.386L619.633 695.296ZM742.932 790.918L712.531 789.856L684.953 744.046L683.389 788.838L657.125 787.921L661.459 663.797L687.723 664.714L685.148 738.469L715.356 698.639L745.578 699.695L712.391 742.302L742.932 790.918Z" fill="#9DC3E7"/>
</g>
<defs>
<filter id="filter0_d_4_14" x="233.346" y="129.699" width="619.015" height="354.149" filterUnits="userSpaceOnUse" color-interpolation-filters="sRGB">
<feFlood flood-opacity="0" result="BackgroundImageFix"/>
<feColorMatrix in="SourceAlpha" type="matrix" values="0 0 0 0 0 0 0 0 0 0 0 0 0 0 0 0 0 0 127 0" result="hardAlpha"/>
<feOffset dy="4"/>
<feGaussianBlur stdDeviation="5"/>
<feComposite in2="hardAlpha" operator="out"/>
<feColorMatrix type="matrix" values="0 0 0 0 0 0 0 0 0 0 0 0 0 0 0 0 0 0 0.25 0"/>
<feBlend mode="normal" in2="BackgroundImageFix" result="effect1_dropShadow_4_14"/>
<feBlend mode="normal" in="SourceGraphic" in2="effect1_dropShadow_4_14" result="shape"/>
</filter>
<filter id="filter1_d_4_14" x="295.892" y="645.533" width="461.375" height="160.824" filterUnits="userSpaceOnUse" color-interpolation-filters="sRGB">
<feFlood flood-opacity="0" result="BackgroundImageFix"/>
<feColorMatrix in="SourceAlpha" type="matrix" values="0 0 0 0 0 0 0 0 0 0 0 0 0 0 0 0 0 0 127 0" result="hardAlpha"/>
<feOffset dy="4"/>
<feGaussianBlur stdDeviation="5"/>
<feComposite in2="hardAlpha" operator="out"/>
<feColorMatrix type="matrix" values="0 0 0 0 0 0 0 0 0 0 0 0 0 0 0 0 0 0 0.25 0"/>
<feBlend mode="normal" in2="BackgroundImageFix" result="effect1_dropShadow_4_14"/>
<feBlend mode="normal" in="SourceGraphic" in2="effect1_dropShadow_4_14" result="shape"/>
</filter>
<linearGradient id="paint0_linear_4_14" x1="513.5" y1="0" x2="513.5" y2="1898.67" gradientUnits="userSpaceOnUse">
<stop stop-color="#3E70C7"/>
<stop offset="1" stop-color="#001051" stop-opacity="0.8"/>
</linearGradient>
<linearGradient id="paint1_linear_4_14" x1="551.439" y1="97.1772" x2="549.913" y2="140.866" gradientUnits="userSpaceOnUse">
<stop stop-color="white"/>
<stop offset="1" stop-color="#9DC3E7"/>
</linearGradient>
</defs>
</svg>
